<svg width="26" height="26" viewBox="0 0 26 26" fill="none" xmlns="http://www.w3.org/2000/svg">
<path d="M18.4163 22.75V20.5833C18.4163 19.4341 17.9598 18.3319 17.1471 17.5192C16.3345 16.7065 15.2323 16.25 14.083 16.25H5.41634C4.26707 16.25 3.16487 16.7065 2.35221 17.5192C1.53955 18.3319 1.08301 19.4341 1.08301 20.5833V22.75" stroke="#818093" stroke-width="2" stroke-linecap="round" stroke-linejoin="round"/>
<path d="M9.75033 11.9167C12.1436 11.9167 14.0837 9.97657 14.0837 7.58333C14.0837 5.1901 12.1436 3.25 9.75033 3.25C7.35709 3.25 5.41699 5.1901 5.41699 7.58333C5.41699 9.97657 7.35709 11.9167 9.75033 11.9167Z" stroke="#818093" stroke-width="2" stroke-linecap="round" stroke-linejoin="round"/>
<path d="M24.917 22.7498V20.5831C24.9163 19.623 24.5967 18.6903 24.0085 17.9315C23.4202 17.1726 22.5966 16.6307 21.667 16.3906" stroke="#818093" stroke-width="2" stroke-linecap="round" stroke-linejoin="round"/>
<path d="M17.333 3.39062C18.2651 3.62928 19.0913 4.17138 19.6813 4.93146C20.2713 5.69154 20.5915 6.62636 20.5915 7.58854C20.5915 8.55073 20.2713 9.48554 19.6813 10.2456C19.0913 11.0057 18.2651 11.5478 17.333 11.7865" stroke="#818093" stroke-width="2" stroke-linecap="round" stroke-linejoin="round"/>
</svg>
