<svg width="33" height="36" viewBox="0 0 33 36" fill="none" xmlns="http://www.w3.org/2000/svg">
<path d="M2 8.39941H5.2H30.8" stroke="#FF0022" stroke-width="3" stroke-linecap="round" stroke-linejoin="round"/>
<path d="M10.0012 8.4V5.2C10.0012 4.35131 10.3383 3.53737 10.9384 2.93726C11.5385 2.33714 12.3525 2 13.2012 2H19.6012C20.4499 2 21.2638 2.33714 21.8639 2.93726C22.464 3.53737 22.8012 4.35131 22.8012 5.2V8.4M27.6012 8.4V30.8C27.6012 31.6487 27.264 32.4626 26.6639 33.0627C26.0638 33.6629 25.2499 34 24.4012 34H8.40117C7.55248 34 6.73855 33.6629 6.13843 33.0627C5.53831 32.4626 5.20117 31.6487 5.20117 30.8V8.4H27.6012Z" stroke="#FF0022" stroke-width="3" stroke-linecap="round" stroke-linejoin="round"/>
<path d="M13.1992 16.4004V26.0004" stroke="#FF0022" stroke-width="3" stroke-linecap="round" stroke-linejoin="round"/>
<path d="M19.6016 16.4004V26.0004" stroke="#FF0022" stroke-width="3" stroke-linecap="round" stroke-linejoin="round"/>
</svg>
