<svg width="26" height="26" viewBox="0 0 26 26" fill="none" xmlns="http://www.w3.org/2000/svg">
<path d="M17.334 22.75V20.5833C17.334 19.4341 16.8774 18.3319 16.0648 17.5192C15.2521 16.7065 14.1499 16.25 13.0007 16.25H5.41732C4.26805 16.25 3.16585 16.7065 2.35319 17.5192C1.54053 18.3319 1.08398 19.4341 1.08398 20.5833V22.75" stroke="#818093" stroke-width="2" stroke-linecap="round" stroke-linejoin="round"/>
<path d="M9.20833 11.9167C11.6016 11.9167 13.5417 9.97657 13.5417 7.58333C13.5417 5.1901 11.6016 3.25 9.20833 3.25C6.8151 3.25 4.875 5.1901 4.875 7.58333C4.875 9.97657 6.8151 11.9167 9.20833 11.9167Z" stroke="#818093" stroke-width="2" stroke-linecap="round" stroke-linejoin="round"/>
<path d="M18.416 11.9167L20.5827 14.0833L24.916 9.75" stroke="#818093" stroke-width="2" stroke-linecap="round" stroke-linejoin="round"/>
</svg>
