<svg width="24" height="24" viewBox="0 0 24 24" fill="none" xmlns="http://www.w3.org/2000/svg">
<path d="M4.616 19C4.15533 19 3.771 18.846 3.463 18.538C3.155 18.23 3.00067 17.8454 3 17.384V6.61602C3 6.15535 3.15433 5.77102 3.463 5.46302C3.77167 5.15502 4.15567 5.00069 4.615 5.00002H13.942C14.0847 5.00002 14.207 5.05102 14.309 5.15302C14.411 5.25502 14.4553 5.37702 14.442 5.51902C14.4293 5.64902 14.3753 5.76169 14.28 5.85702C14.1847 5.95235 14.072 6.00002 13.942 6.00002H4V17.385C4 17.5644 4.05767 17.7117 4.173 17.827C4.28833 17.9424 4.436 18 4.616 18H19.385C19.5643 18 19.7117 17.9424 19.827 17.827C19.9423 17.7117 20 17.5644 20 17.385V11C20 10.858 20.0477 10.739 20.143 10.643C20.2383 10.547 20.3573 10.4994 20.5 10.5C20.6427 10.5007 20.7617 10.5484 20.857 10.643C20.9523 10.7377 21 10.8567 21 11V17.385C21 17.845 20.846 18.229 20.538 18.537C20.23 18.845 19.8457 18.9994 19.385 19H4.616ZM12 11L15.283 8.86602C15.4137 8.77935 15.535 8.75435 15.647 8.79102C15.7597 8.82769 15.8487 8.89935 15.914 9.00602C15.9793 9.11269 16.005 9.22269 15.991 9.33602C15.9763 9.45069 15.9037 9.55069 15.773 9.63602L12.429 11.829C12.2877 11.9157 12.1447 11.9624 12 11.969C11.8553 11.9757 11.7123 11.9354 11.571 11.848L4 7.09602V6.00002L12 11ZM19 8.27002C18.308 8.27002 17.718 8.02635 17.23 7.53902C16.742 7.05169 16.4987 6.46169 16.5 5.76902C16.5013 5.07635 16.7447 4.48669 17.23 4.00002C17.7153 3.51335 18.3053 3.27002 19 3.27002C19.6947 3.27002 20.2847 3.51335 20.77 4.00002C21.2553 4.48669 21.4987 5.07669 21.5 5.77002C21.5013 6.46335 21.258 7.05302 20.77 7.53902C20.282 8.02502 19.692 8.26835 19 8.26902" fill="black"/>
</svg>
