<svg width="81" height="73" viewBox="0 0 81 73" fill="none" xmlns="http://www.w3.org/2000/svg">
<path d="M16.2217 28.3857C21.1086 28.3857 25.0702 32.3473 25.0702 37.2342V64.1484C25.0702 69.0352 21.1086 72.9968 16.2217 72.9968V28.3857Z" fill="#37D3D3"/>
<path d="M64.1533 28.3857C59.2664 28.3857 55.3048 32.3473 55.3048 37.2342V64.1484C55.3048 69.0352 59.2664 72.9968 64.1533 72.9968V28.3857Z" fill="#37D3D3"/>
<path d="M50.5933 34.4043C52.8107 36.6217 52.8107 40.2169 50.5933 42.4344L40.079 52.9486C37.8616 50.7312 37.8616 47.136 40.079 44.9185L50.5933 34.4043Z" fill="#37D3D3"/>
<path d="M39.2248 42.5822C39.2248 42.5822 37.9484 43.8121 37.422 44.7945C36.821 45.9162 36.5455 47.933 36.5455 47.933L30.9295 42.317C28.7121 40.0996 28.7121 36.5044 30.9295 34.2869L39.2248 42.5822Z" fill="#37D3D3"/>
<ellipse cx="20.6459" cy="21.7514" rx="4.42424" ry="4.42424" fill="#37D3D3"/>
<ellipse cx="59.7309" cy="21.7514" rx="4.42424" ry="4.42424" fill="#37D3D3"/>
<mask id="path-7-inside-1_184_798" fill="white">
<path d="M64.151 72.9957C71.0159 67.9919 76.1274 60.9501 78.758 52.8728C81.3886 44.7954 81.4042 36.094 78.8026 28.0072C76.2009 19.9205 71.1146 12.8604 64.2677 7.83212C57.4208 2.8038 49.1622 0.0634256 40.6675 0.0010876C32.1727 -0.0612504 23.8748 2.55762 16.9548 7.48492C10.0349 12.4122 4.84552 19.3968 2.12548 27.4445C-0.594564 35.4923 -0.706684 44.1929 1.80508 52.308C4.31684 60.4232 9.43152 67.896 16.2222 73L18.4219 69.5742C12.2769 64.9556 7.7455 58.5163 5.4726 51.1729C3.1997 43.8295 3.30116 35.9562 5.76253 28.6738C8.22391 21.3914 12.9198 15.071 19.1817 10.6123C25.4436 6.15358 32.9524 3.78375 40.6393 3.84016C48.3262 3.89657 55.7994 6.37634 61.9952 10.9265C68.191 15.4766 72.7936 21.8653 75.1479 29.183C77.5021 36.5007 77.488 44.3746 75.1076 51.6839C72.7271 58.9932 68.1017 65.3653 61.8896 69.8932L64.151 72.9957Z"/>
</mask>
<path d="M64.151 72.9957C71.0159 67.9919 76.1274 60.9501 78.758 52.8728C81.3886 44.7954 81.4042 36.094 78.8026 28.0072C76.2009 19.9205 71.1146 12.8604 64.2677 7.83212C57.4208 2.8038 49.1622 0.0634256 40.6675 0.0010876C32.1727 -0.0612504 23.8748 2.55762 16.9548 7.48492C10.0349 12.4122 4.84552 19.3968 2.12548 27.4445C-0.594564 35.4923 -0.706684 44.1929 1.80508 52.308C4.31684 60.4232 9.43152 67.896 16.2222 73L18.4219 69.5742C12.2769 64.9556 7.7455 58.5163 5.4726 51.1729C3.1997 43.8295 3.30116 35.9562 5.76253 28.6738C8.22391 21.3914 12.9198 15.071 19.1817 10.6123C25.4436 6.15358 32.9524 3.78375 40.6393 3.84016C48.3262 3.89657 55.7994 6.37634 61.9952 10.9265C68.191 15.4766 72.7936 21.8653 75.1479 29.183C77.5021 36.5007 77.488 44.3746 75.1076 51.6839C72.7271 58.9932 68.1017 65.3653 61.8896 69.8932L64.151 72.9957Z" fill="#37D3D3"/>
<path d="M64.151 72.9957L52.0293 81.8311L60.8648 93.9528L72.9864 85.1174L64.151 72.9957ZM16.2222 73L7.20985 84.9907L20.1191 94.6935L28.8444 81.1044L16.2222 73ZM18.4219 69.5742L31.044 77.6786L38.5718 65.9546L27.4342 57.5835L18.4219 69.5742ZM61.8896 69.8932L53.0542 57.7715L40.9325 66.6069L49.7679 78.7286L61.8896 69.8932ZM72.9864 85.1174C82.402 78.2544 89.4127 68.5963 93.0207 57.5177L64.4953 48.2278C62.8421 53.304 59.6298 57.7294 55.3156 60.874L72.9864 85.1174ZM93.0207 57.5177C96.6287 46.4392 96.6501 34.5048 93.0818 23.4134L64.5233 32.6011C66.1583 37.6832 66.1485 43.1516 64.4953 48.2278L93.0207 57.5177ZM93.0818 23.4134C89.5135 12.322 82.5374 2.63877 73.1465 -4.25784L55.3889 19.9221C59.6919 23.0821 62.8883 27.519 64.5233 32.6011L93.0818 23.4134ZM73.1465 -4.25784C63.7556 -11.1544 52.4285 -14.913 40.7775 -14.9985L40.5574 15.0007C45.8959 15.0399 51.086 16.762 55.3889 19.9221L73.1465 -4.25784ZM40.7775 -14.9985C29.1266 -15.084 17.7455 -11.4921 8.25445 -4.73404L25.6552 19.7039C30.0041 16.6073 35.2189 14.9615 40.5574 15.0007L40.7775 -14.9985ZM8.25445 -4.73404C-1.23665 2.024 -8.35411 11.6038 -12.0848 22.6416L16.3358 32.2475C18.0452 27.1899 21.3064 22.8004 25.6552 19.7039L8.25445 -4.73404ZM-12.0848 22.6416C-15.8155 33.6795 -15.9693 45.6129 -12.5242 56.7432L16.1344 47.8729C14.5559 42.773 14.6263 37.305 16.3358 32.2475L-12.0848 22.6416ZM-12.5242 56.7432C-9.12241 67.734 -2.21825 77.9044 7.20985 84.9907L25.2346 61.0093C21.0813 57.8876 17.7561 53.1124 16.1344 47.8729L-12.5242 56.7432ZM28.8444 81.1044L31.044 77.6786L5.79973 61.4698L3.6001 64.8956L28.8444 81.1044ZM27.4342 57.5835C23.8124 54.8613 21.1416 51.066 19.8019 46.7377L-8.85672 55.608C-5.65057 65.9666 0.741458 75.0499 9.40948 81.5649L27.4342 57.5835ZM19.8019 46.7377C18.4623 42.4095 18.5221 37.769 19.9728 33.4768L-8.44774 23.8709C-11.9198 34.1434 -12.0629 45.2495 -8.85672 55.608L19.8019 46.7377ZM19.9728 33.4768C21.4235 29.1845 24.1913 25.4592 27.8821 22.8313L10.4813 -1.60666C1.64824 4.68282 -4.97573 13.5984 -8.44774 23.8709L19.9728 33.4768ZM27.8821 22.8313C31.5728 20.2033 35.9986 18.8065 40.5292 18.8398L40.7494 -11.1594C29.9062 -11.239 19.3143 -7.89614 10.4813 -1.60666L27.8821 22.8313ZM40.5292 18.8398C45.0599 18.873 49.4646 20.3346 53.1165 23.0165L70.874 -1.16347C62.1342 -7.5819 51.5925 -11.0799 40.7494 -11.1594L40.5292 18.8398ZM53.1165 23.0165C56.7683 25.6983 59.481 29.4638 60.8686 33.7769L89.4271 24.5891C86.1062 14.2668 79.6138 5.25496 70.874 -1.16347L53.1165 23.0165ZM60.8686 33.7769C62.2562 38.09 62.2479 42.7309 60.8449 47.0389L89.3702 56.3289C92.7281 46.0184 92.748 34.9115 89.4271 24.5891L60.8686 33.7769ZM60.8449 47.0389C59.4418 51.347 56.7156 55.1027 53.0542 57.7715L70.7251 82.0149C79.4878 75.6278 86.0124 66.6393 89.3702 56.3289L60.8449 47.0389ZM49.7679 78.7286L52.0293 81.8311L76.2727 64.1602L74.0113 61.0578L49.7679 78.7286Z" fill="#37D3D3" mask="url(#path-7-inside-1_184_798)"/>
</svg>
