<svg width="26" height="24" viewBox="0 0 26 24" fill="none" xmlns="http://www.w3.org/2000/svg">
<g clip-path="url(#clip0_160_481)">
<path d="M23.2275 3.47368V5.78947H19.7539V9.26316H17.4381V5.78947H13.9644V3.47368H17.4381V0H19.7539V3.47368H23.2275ZM19.7539 19.6842H3.54333V3.47368H10.4907V1.15789H3.54333C2.26964 1.15789 1.22754 2.2 1.22754 3.47368V19.6842C1.22754 20.9579 2.26964 22 3.54333 22H19.7539C21.0275 22 22.0696 20.9579 22.0696 19.6842V12.7368H19.7539V19.6842ZM15.1223 12.7368V17.3684H17.4381V12.7368H15.1223ZM10.4907 17.3684H12.8065V8.10526H10.4907V17.3684ZM8.17491 17.3684V10.4211H5.85912V17.3684H8.17491Z" fill="#818093"/>
</g>
<defs>
<clipPath id="clip0_160_481">
<rect width="24" height="24" fill="white" transform="translate(1.22754)"/>
</clipPath>
</defs>
</svg>
