<svg width="85" height="85" viewBox="0 0 85 85" fill="none" xmlns="http://www.w3.org/2000/svg">
<path d="M28.334 60.2085L42.5007 74.3752L56.6673 60.2085" stroke="white" stroke-width="2" stroke-linecap="round" stroke-linejoin="round"/>
<path d="M42.5 42.5V74.375" stroke="white" stroke-width="2" stroke-linecap="round" stroke-linejoin="round"/>
<path d="M73.9499 64.0685C77.029 61.9033 79.338 58.8132 80.5419 55.2467C81.7458 51.6803 81.7819 47.823 80.645 44.2346C79.5081 40.6462 77.2573 37.5134 74.2193 35.2909C71.1812 33.0684 67.514 31.8718 63.7499 31.8748H59.2874C58.2222 27.7235 56.2291 23.8679 53.4582 20.5984C50.6873 17.3288 47.2108 14.7305 43.2904 12.9989C39.37 11.2674 35.1078 10.4478 30.8248 10.6018C26.5418 10.7558 22.3496 11.8795 18.5637 13.8881C14.7778 15.8968 11.4969 18.7382 8.96802 22.1983C6.43914 25.6585 4.72816 29.6472 3.9639 33.8643C3.19964 38.0814 3.40202 42.4169 4.55578 46.5444C5.70955 50.672 7.78465 54.484 10.6249 57.6935" stroke="white" stroke-width="2" stroke-linecap="round" stroke-linejoin="round"/>
</svg>
