<svg width="26" height="26" viewBox="0 0 26 26" fill="none" xmlns="http://www.w3.org/2000/svg">
<path d="M21.1256 6.5L19.5364 7.69167C19.1614 7.97295 18.7052 8.125 18.2364 8.125H14.5986C14.246 8.12514 13.9022 8.23426 13.6141 8.43742C13.326 8.64058 13.1077 8.92784 12.9892 9.25986C12.8707 9.59188 12.8578 9.95241 12.9521 10.2921C13.0465 10.6317 13.2435 10.9339 13.5163 11.1572L15.683 12.9296C16.5222 13.6162 17.1763 14.5017 17.5857 15.5057C17.9952 16.5097 18.147 17.6001 18.0273 18.6777L18.0057 18.8727C17.9195 19.6485 17.7289 20.409 17.4391 21.1337L16.7923 22.75M2.70898 11.375L6.21682 10.79C6.55708 10.7332 6.90599 10.7585 7.23451 10.8637C7.56304 10.9689 7.86169 11.1511 8.10562 11.395C8.34955 11.639 8.53171 11.9376 8.63694 12.2661C8.74218 12.5947 8.76745 12.9436 8.71065 13.2838L8.5644 14.1581C8.43797 14.9207 8.55908 15.7037 8.90999 16.3925C9.2609 17.0812 9.82316 17.6395 10.5144 17.9855C11.0665 18.2611 11.5079 18.717 11.7656 19.2777C12.0233 19.8383 12.0818 20.4702 11.9314 21.0687L11.3757 23.2917" stroke="#818093" stroke-width="1.5"/>
<path d="M13.0007 23.2918C18.6846 23.2918 23.2923 18.6841 23.2923 13.0002C23.2923 7.31623 18.6846 2.7085 13.0007 2.7085C7.31672 2.7085 2.70898 7.31623 2.70898 13.0002C2.70898 18.6841 7.31672 23.2918 13.0007 23.2918Z" stroke="#818093" stroke-width="1.5"/>
</svg>
